<mxfile host="app.diagrams.net" modified="2023-10-17T07:59:53.525Z" agent="Mozilla/5.0 (Macintosh; Intel Mac OS X 10_15_7) AppleWebKit/537.36 (KHTML, like Gecko) Chrome/117.0.0.0 Safari/537.36" etag="zaG4NqZx-e4xXB7NBV9R" version="22.0.4" type="github">
  <diagram name="第 1 页" id="89G4R8s6T6oMadFMvLtD">
    <mxGraphModel dx="2682" dy="2360" grid="1" gridSize="10" guides="1" tooltips="1" connect="1" arrows="1" fold="1" page="1" pageScale="1" pageWidth="827" pageHeight="1169" math="0" shadow="0">
      <root>
        <mxCell id="0" />
        <mxCell id="1" parent="0" />
        <mxCell id="99pTlGcqJ_W1B6bQg11n-1" value="Assets" style="childLayout=tableLayout;recursiveResize=0;strokeColor=#98bf21;fillColor=#A7C942;shadow=1;" vertex="1" parent="1">
          <mxGeometry x="70" y="101" width="280" height="158" as="geometry" />
        </mxCell>
        <mxCell id="99pTlGcqJ_W1B6bQg11n-2" style="shape=tableRow;horizontal=0;startSize=0;swimlaneHead=0;swimlaneBody=0;top=0;left=0;bottom=0;right=0;dropTarget=0;collapsible=0;recursiveResize=0;expand=0;fontStyle=0;strokeColor=inherit;fillColor=#ffffff;" vertex="1" parent="99pTlGcqJ_W1B6bQg11n-1">
          <mxGeometry width="280" height="33" as="geometry" />
        </mxCell>
        <mxCell id="99pTlGcqJ_W1B6bQg11n-3" value="EventTyoe" style="connectable=0;recursiveResize=0;strokeColor=inherit;fillColor=#A7C942;align=center;fontStyle=1;fontColor=#FFFFFF;html=1;" vertex="1" parent="99pTlGcqJ_W1B6bQg11n-2">
          <mxGeometry width="93" height="33" as="geometry">
            <mxRectangle width="93" height="33" as="alternateBounds" />
          </mxGeometry>
        </mxCell>
        <mxCell id="99pTlGcqJ_W1B6bQg11n-4" value="key" style="connectable=0;recursiveResize=0;strokeColor=inherit;fillColor=#A7C942;align=center;fontStyle=1;fontColor=#FFFFFF;html=1;" vertex="1" parent="99pTlGcqJ_W1B6bQg11n-2">
          <mxGeometry x="93" width="94" height="33" as="geometry">
            <mxRectangle width="94" height="33" as="alternateBounds" />
          </mxGeometry>
        </mxCell>
        <mxCell id="99pTlGcqJ_W1B6bQg11n-5" value="value" style="connectable=0;recursiveResize=0;strokeColor=inherit;fillColor=#A7C942;align=center;fontStyle=1;fontColor=#FFFFFF;html=1;" vertex="1" parent="99pTlGcqJ_W1B6bQg11n-2">
          <mxGeometry x="187" width="93" height="33" as="geometry">
            <mxRectangle width="93" height="33" as="alternateBounds" />
          </mxGeometry>
        </mxCell>
        <mxCell id="99pTlGcqJ_W1B6bQg11n-6" value="" style="shape=tableRow;horizontal=0;startSize=0;swimlaneHead=0;swimlaneBody=0;top=0;left=0;bottom=0;right=0;dropTarget=0;collapsible=0;recursiveResize=0;expand=0;fontStyle=0;strokeColor=inherit;fillColor=#ffffff;" vertex="1" parent="99pTlGcqJ_W1B6bQg11n-1">
          <mxGeometry y="33" width="280" height="26" as="geometry" />
        </mxCell>
        <mxCell id="99pTlGcqJ_W1B6bQg11n-7" value="+" style="connectable=0;recursiveResize=0;strokeColor=inherit;fillColor=inherit;align=center;whiteSpace=wrap;html=1;" vertex="1" parent="99pTlGcqJ_W1B6bQg11n-6">
          <mxGeometry width="93" height="26" as="geometry">
            <mxRectangle width="93" height="26" as="alternateBounds" />
          </mxGeometry>
        </mxCell>
        <mxCell id="99pTlGcqJ_W1B6bQg11n-8" value="1" style="connectable=0;recursiveResize=0;strokeColor=inherit;fillColor=inherit;align=center;whiteSpace=wrap;html=1;" vertex="1" parent="99pTlGcqJ_W1B6bQg11n-6">
          <mxGeometry x="93" width="94" height="26" as="geometry">
            <mxRectangle width="94" height="26" as="alternateBounds" />
          </mxGeometry>
        </mxCell>
        <mxCell id="99pTlGcqJ_W1B6bQg11n-9" value="3" style="connectable=0;recursiveResize=0;strokeColor=inherit;fillColor=inherit;align=center;whiteSpace=wrap;html=1;" vertex="1" parent="99pTlGcqJ_W1B6bQg11n-6">
          <mxGeometry x="187" width="93" height="26" as="geometry">
            <mxRectangle width="93" height="26" as="alternateBounds" />
          </mxGeometry>
        </mxCell>
        <mxCell id="99pTlGcqJ_W1B6bQg11n-10" value="" style="shape=tableRow;horizontal=0;startSize=0;swimlaneHead=0;swimlaneBody=0;top=0;left=0;bottom=0;right=0;dropTarget=0;collapsible=0;recursiveResize=0;expand=0;fontStyle=1;strokeColor=inherit;fillColor=#EAF2D3;" vertex="1" parent="99pTlGcqJ_W1B6bQg11n-1">
          <mxGeometry y="59" width="280" height="35" as="geometry" />
        </mxCell>
        <mxCell id="99pTlGcqJ_W1B6bQg11n-11" value="-" style="connectable=0;recursiveResize=0;strokeColor=inherit;fillColor=inherit;whiteSpace=wrap;html=1;" vertex="1" parent="99pTlGcqJ_W1B6bQg11n-10">
          <mxGeometry width="93" height="35" as="geometry">
            <mxRectangle width="93" height="35" as="alternateBounds" />
          </mxGeometry>
        </mxCell>
        <mxCell id="99pTlGcqJ_W1B6bQg11n-12" value="2" style="connectable=0;recursiveResize=0;strokeColor=inherit;fillColor=inherit;whiteSpace=wrap;html=1;" vertex="1" parent="99pTlGcqJ_W1B6bQg11n-10">
          <mxGeometry x="93" width="94" height="35" as="geometry">
            <mxRectangle width="94" height="35" as="alternateBounds" />
          </mxGeometry>
        </mxCell>
        <mxCell id="99pTlGcqJ_W1B6bQg11n-13" value="5" style="connectable=0;recursiveResize=0;strokeColor=inherit;fillColor=inherit;whiteSpace=wrap;html=1;" vertex="1" parent="99pTlGcqJ_W1B6bQg11n-10">
          <mxGeometry x="187" width="93" height="35" as="geometry">
            <mxRectangle width="93" height="35" as="alternateBounds" />
          </mxGeometry>
        </mxCell>
        <mxCell id="99pTlGcqJ_W1B6bQg11n-14" value="" style="shape=tableRow;horizontal=0;startSize=0;swimlaneHead=0;swimlaneBody=0;top=0;left=0;bottom=0;right=0;dropTarget=0;collapsible=0;recursiveResize=0;expand=0;fontStyle=0;strokeColor=inherit;fillColor=#ffffff;" vertex="1" parent="99pTlGcqJ_W1B6bQg11n-1">
          <mxGeometry y="94" width="280" height="33" as="geometry" />
        </mxCell>
        <mxCell id="99pTlGcqJ_W1B6bQg11n-15" value="-" style="connectable=0;recursiveResize=0;strokeColor=inherit;fillColor=inherit;fontStyle=0;align=center;whiteSpace=wrap;html=1;" vertex="1" parent="99pTlGcqJ_W1B6bQg11n-14">
          <mxGeometry width="93" height="33" as="geometry">
            <mxRectangle width="93" height="33" as="alternateBounds" />
          </mxGeometry>
        </mxCell>
        <mxCell id="99pTlGcqJ_W1B6bQg11n-16" value="1" style="connectable=0;recursiveResize=0;strokeColor=inherit;fillColor=inherit;fontStyle=0;align=center;whiteSpace=wrap;html=1;" vertex="1" parent="99pTlGcqJ_W1B6bQg11n-14">
          <mxGeometry x="93" width="94" height="33" as="geometry">
            <mxRectangle width="94" height="33" as="alternateBounds" />
          </mxGeometry>
        </mxCell>
        <mxCell id="99pTlGcqJ_W1B6bQg11n-17" value="10" style="connectable=0;recursiveResize=0;strokeColor=inherit;fillColor=inherit;fontStyle=0;align=center;whiteSpace=wrap;html=1;" vertex="1" parent="99pTlGcqJ_W1B6bQg11n-14">
          <mxGeometry x="187" width="93" height="33" as="geometry">
            <mxRectangle width="93" height="33" as="alternateBounds" />
          </mxGeometry>
        </mxCell>
        <mxCell id="99pTlGcqJ_W1B6bQg11n-18" value="" style="shape=tableRow;horizontal=0;startSize=0;swimlaneHead=0;swimlaneBody=0;top=0;left=0;bottom=0;right=0;dropTarget=0;collapsible=0;recursiveResize=0;expand=0;fontStyle=1;strokeColor=inherit;fillColor=#EAF2D3;" vertex="1" parent="99pTlGcqJ_W1B6bQg11n-1">
          <mxGeometry y="127" width="280" height="31" as="geometry" />
        </mxCell>
        <mxCell id="99pTlGcqJ_W1B6bQg11n-19" value="+" style="connectable=0;recursiveResize=0;strokeColor=inherit;fillColor=inherit;whiteSpace=wrap;html=1;" vertex="1" parent="99pTlGcqJ_W1B6bQg11n-18">
          <mxGeometry width="93" height="31" as="geometry">
            <mxRectangle width="93" height="31" as="alternateBounds" />
          </mxGeometry>
        </mxCell>
        <mxCell id="99pTlGcqJ_W1B6bQg11n-20" value="1" style="connectable=0;recursiveResize=0;strokeColor=inherit;fillColor=inherit;whiteSpace=wrap;html=1;" vertex="1" parent="99pTlGcqJ_W1B6bQg11n-18">
          <mxGeometry x="93" width="94" height="31" as="geometry">
            <mxRectangle width="94" height="31" as="alternateBounds" />
          </mxGeometry>
        </mxCell>
        <mxCell id="99pTlGcqJ_W1B6bQg11n-21" value="4" style="connectable=0;recursiveResize=0;strokeColor=inherit;fillColor=inherit;whiteSpace=wrap;html=1;" vertex="1" parent="99pTlGcqJ_W1B6bQg11n-18">
          <mxGeometry x="187" width="93" height="31" as="geometry">
            <mxRectangle width="93" height="31" as="alternateBounds" />
          </mxGeometry>
        </mxCell>
        <mxCell id="99pTlGcqJ_W1B6bQg11n-55" value="Assets" style="childLayout=tableLayout;recursiveResize=0;strokeColor=#98bf21;fillColor=#A7C942;shadow=1;" vertex="1" parent="1">
          <mxGeometry x="-40" y="341" width="640" height="110" as="geometry" />
        </mxCell>
        <mxCell id="99pTlGcqJ_W1B6bQg11n-56" style="shape=tableRow;horizontal=0;startSize=0;swimlaneHead=0;swimlaneBody=0;top=0;left=0;bottom=0;right=0;dropTarget=0;collapsible=0;recursiveResize=0;expand=0;fontStyle=0;strokeColor=inherit;fillColor=#ffffff;" vertex="1" parent="99pTlGcqJ_W1B6bQg11n-55">
          <mxGeometry width="640" height="41" as="geometry" />
        </mxCell>
        <mxCell id="99pTlGcqJ_W1B6bQg11n-57" value="EventTyoe" style="connectable=0;recursiveResize=0;strokeColor=inherit;fillColor=#A7C942;align=center;fontStyle=1;fontColor=#FFFFFF;html=1;" vertex="1" parent="99pTlGcqJ_W1B6bQg11n-56">
          <mxGeometry width="93" height="41" as="geometry">
            <mxRectangle width="93" height="41" as="alternateBounds" />
          </mxGeometry>
        </mxCell>
        <mxCell id="99pTlGcqJ_W1B6bQg11n-58" value="key" style="connectable=0;recursiveResize=0;strokeColor=inherit;fillColor=#A7C942;align=center;fontStyle=1;fontColor=#FFFFFF;html=1;" vertex="1" parent="99pTlGcqJ_W1B6bQg11n-56">
          <mxGeometry x="93" width="97" height="41" as="geometry">
            <mxRectangle width="97" height="41" as="alternateBounds" />
          </mxGeometry>
        </mxCell>
        <mxCell id="99pTlGcqJ_W1B6bQg11n-59" value="group_key_count" style="connectable=0;recursiveResize=0;strokeColor=inherit;fillColor=#A7C942;align=center;fontStyle=1;fontColor=#FFFFFF;html=1;" vertex="1" parent="99pTlGcqJ_W1B6bQg11n-56">
          <mxGeometry x="190" width="90" height="41" as="geometry">
            <mxRectangle width="90" height="41" as="alternateBounds" />
          </mxGeometry>
        </mxCell>
        <mxCell id="99pTlGcqJ_W1B6bQg11n-149" value="sum" style="connectable=0;recursiveResize=0;strokeColor=inherit;fillColor=#A7C942;align=center;fontStyle=1;fontColor=#FFFFFF;html=1;" vertex="1" parent="99pTlGcqJ_W1B6bQg11n-56">
          <mxGeometry x="280" width="90" height="41" as="geometry">
            <mxRectangle width="90" height="41" as="alternateBounds" />
          </mxGeometry>
        </mxCell>
        <mxCell id="99pTlGcqJ_W1B6bQg11n-154" value="valid_count" style="connectable=0;recursiveResize=0;strokeColor=inherit;fillColor=#A7C942;align=center;fontStyle=1;fontColor=#FFFFFF;html=1;" vertex="1" parent="99pTlGcqJ_W1B6bQg11n-56">
          <mxGeometry x="370" width="90" height="41" as="geometry">
            <mxRectangle width="90" height="41" as="alternateBounds" />
          </mxGeometry>
        </mxCell>
        <mxCell id="99pTlGcqJ_W1B6bQg11n-159" value="map_key" style="connectable=0;recursiveResize=0;strokeColor=inherit;fillColor=#A7C942;align=center;fontStyle=1;fontColor=#FFFFFF;html=1;" vertex="1" parent="99pTlGcqJ_W1B6bQg11n-56">
          <mxGeometry x="460" width="90" height="41" as="geometry">
            <mxRectangle width="90" height="41" as="alternateBounds" />
          </mxGeometry>
        </mxCell>
        <mxCell id="99pTlGcqJ_W1B6bQg11n-164" value="map_key_count" style="connectable=0;recursiveResize=0;strokeColor=inherit;fillColor=#A7C942;align=center;fontStyle=1;fontColor=#FFFFFF;html=1;" vertex="1" parent="99pTlGcqJ_W1B6bQg11n-56">
          <mxGeometry x="550" width="90" height="41" as="geometry">
            <mxRectangle width="90" height="41" as="alternateBounds" />
          </mxGeometry>
        </mxCell>
        <mxCell id="99pTlGcqJ_W1B6bQg11n-60" value="" style="shape=tableRow;horizontal=0;startSize=0;swimlaneHead=0;swimlaneBody=0;top=0;left=0;bottom=0;right=0;dropTarget=0;collapsible=0;recursiveResize=0;expand=0;fontStyle=0;strokeColor=inherit;fillColor=#ffffff;" vertex="1" parent="99pTlGcqJ_W1B6bQg11n-55">
          <mxGeometry y="41" width="640" height="33" as="geometry" />
        </mxCell>
        <mxCell id="99pTlGcqJ_W1B6bQg11n-61" value="+" style="connectable=0;recursiveResize=0;strokeColor=inherit;fillColor=inherit;align=center;whiteSpace=wrap;html=1;" vertex="1" parent="99pTlGcqJ_W1B6bQg11n-60">
          <mxGeometry width="93" height="33" as="geometry">
            <mxRectangle width="93" height="33" as="alternateBounds" />
          </mxGeometry>
        </mxCell>
        <mxCell id="99pTlGcqJ_W1B6bQg11n-62" value="1" style="connectable=0;recursiveResize=0;strokeColor=inherit;fillColor=inherit;align=center;whiteSpace=wrap;html=1;" vertex="1" parent="99pTlGcqJ_W1B6bQg11n-60">
          <mxGeometry x="93" width="97" height="33" as="geometry">
            <mxRectangle width="97" height="33" as="alternateBounds" />
          </mxGeometry>
        </mxCell>
        <mxCell id="99pTlGcqJ_W1B6bQg11n-63" value="1" style="connectable=0;recursiveResize=0;strokeColor=inherit;fillColor=inherit;align=center;whiteSpace=wrap;html=1;" vertex="1" parent="99pTlGcqJ_W1B6bQg11n-60">
          <mxGeometry x="190" width="90" height="33" as="geometry">
            <mxRectangle width="90" height="33" as="alternateBounds" />
          </mxGeometry>
        </mxCell>
        <mxCell id="99pTlGcqJ_W1B6bQg11n-150" value="-3" style="connectable=0;recursiveResize=0;strokeColor=inherit;fillColor=inherit;align=center;whiteSpace=wrap;html=1;" vertex="1" parent="99pTlGcqJ_W1B6bQg11n-60">
          <mxGeometry x="280" width="90" height="33" as="geometry">
            <mxRectangle width="90" height="33" as="alternateBounds" />
          </mxGeometry>
        </mxCell>
        <mxCell id="99pTlGcqJ_W1B6bQg11n-155" value="1" style="connectable=0;recursiveResize=0;strokeColor=inherit;fillColor=inherit;align=center;whiteSpace=wrap;html=1;" vertex="1" parent="99pTlGcqJ_W1B6bQg11n-60">
          <mxGeometry x="370" width="90" height="33" as="geometry">
            <mxRectangle width="90" height="33" as="alternateBounds" />
          </mxGeometry>
        </mxCell>
        <mxCell id="99pTlGcqJ_W1B6bQg11n-160" value="【3，4，10】" style="connectable=0;recursiveResize=0;strokeColor=inherit;fillColor=inherit;align=center;whiteSpace=wrap;html=1;" vertex="1" parent="99pTlGcqJ_W1B6bQg11n-60">
          <mxGeometry x="460" width="90" height="33" as="geometry">
            <mxRectangle width="90" height="33" as="alternateBounds" />
          </mxGeometry>
        </mxCell>
        <mxCell id="99pTlGcqJ_W1B6bQg11n-165" value="【1，1，-1】" style="connectable=0;recursiveResize=0;strokeColor=inherit;fillColor=inherit;align=center;whiteSpace=wrap;html=1;" vertex="1" parent="99pTlGcqJ_W1B6bQg11n-60">
          <mxGeometry x="550" width="90" height="33" as="geometry">
            <mxRectangle width="90" height="33" as="alternateBounds" />
          </mxGeometry>
        </mxCell>
        <mxCell id="99pTlGcqJ_W1B6bQg11n-64" value="" style="shape=tableRow;horizontal=0;startSize=0;swimlaneHead=0;swimlaneBody=0;top=0;left=0;bottom=0;right=0;dropTarget=0;collapsible=0;recursiveResize=0;expand=0;fontStyle=1;strokeColor=inherit;fillColor=#EAF2D3;" vertex="1" parent="99pTlGcqJ_W1B6bQg11n-55">
          <mxGeometry y="74" width="640" height="36" as="geometry" />
        </mxCell>
        <mxCell id="99pTlGcqJ_W1B6bQg11n-65" value="+" style="connectable=0;recursiveResize=0;strokeColor=inherit;fillColor=inherit;whiteSpace=wrap;html=1;" vertex="1" parent="99pTlGcqJ_W1B6bQg11n-64">
          <mxGeometry width="93" height="36" as="geometry">
            <mxRectangle width="93" height="36" as="alternateBounds" />
          </mxGeometry>
        </mxCell>
        <mxCell id="99pTlGcqJ_W1B6bQg11n-66" value="2" style="connectable=0;recursiveResize=0;strokeColor=inherit;fillColor=inherit;whiteSpace=wrap;html=1;" vertex="1" parent="99pTlGcqJ_W1B6bQg11n-64">
          <mxGeometry x="93" width="97" height="36" as="geometry">
            <mxRectangle width="97" height="36" as="alternateBounds" />
          </mxGeometry>
        </mxCell>
        <mxCell id="99pTlGcqJ_W1B6bQg11n-67" value="-1" style="connectable=0;recursiveResize=0;strokeColor=inherit;fillColor=inherit;whiteSpace=wrap;html=1;" vertex="1" parent="99pTlGcqJ_W1B6bQg11n-64">
          <mxGeometry x="190" width="90" height="36" as="geometry">
            <mxRectangle width="90" height="36" as="alternateBounds" />
          </mxGeometry>
        </mxCell>
        <mxCell id="99pTlGcqJ_W1B6bQg11n-151" value="-5" style="connectable=0;recursiveResize=0;strokeColor=inherit;fillColor=inherit;whiteSpace=wrap;html=1;" vertex="1" parent="99pTlGcqJ_W1B6bQg11n-64">
          <mxGeometry x="280" width="90" height="36" as="geometry">
            <mxRectangle width="90" height="36" as="alternateBounds" />
          </mxGeometry>
        </mxCell>
        <mxCell id="99pTlGcqJ_W1B6bQg11n-156" value="-1" style="connectable=0;recursiveResize=0;strokeColor=inherit;fillColor=inherit;whiteSpace=wrap;html=1;" vertex="1" parent="99pTlGcqJ_W1B6bQg11n-64">
          <mxGeometry x="370" width="90" height="36" as="geometry">
            <mxRectangle width="90" height="36" as="alternateBounds" />
          </mxGeometry>
        </mxCell>
        <mxCell id="99pTlGcqJ_W1B6bQg11n-161" value="【5】" style="connectable=0;recursiveResize=0;strokeColor=inherit;fillColor=inherit;whiteSpace=wrap;html=1;" vertex="1" parent="99pTlGcqJ_W1B6bQg11n-64">
          <mxGeometry x="460" width="90" height="36" as="geometry">
            <mxRectangle width="90" height="36" as="alternateBounds" />
          </mxGeometry>
        </mxCell>
        <mxCell id="99pTlGcqJ_W1B6bQg11n-166" value="【-1】" style="connectable=0;recursiveResize=0;strokeColor=inherit;fillColor=inherit;whiteSpace=wrap;html=1;" vertex="1" parent="99pTlGcqJ_W1B6bQg11n-64">
          <mxGeometry x="550" width="90" height="36" as="geometry">
            <mxRectangle width="90" height="36" as="alternateBounds" />
          </mxGeometry>
        </mxCell>
        <mxCell id="99pTlGcqJ_W1B6bQg11n-26" value="Assets" style="childLayout=tableLayout;recursiveResize=0;strokeColor=#98bf21;fillColor=#A7C942;shadow=1;" vertex="1" parent="1">
          <mxGeometry x="827" y="90" width="280" height="164" as="geometry" />
        </mxCell>
        <mxCell id="99pTlGcqJ_W1B6bQg11n-27" style="shape=tableRow;horizontal=0;startSize=0;swimlaneHead=0;swimlaneBody=0;top=0;left=0;bottom=0;right=0;dropTarget=0;collapsible=0;recursiveResize=0;expand=0;fontStyle=0;strokeColor=inherit;fillColor=#ffffff;" vertex="1" parent="99pTlGcqJ_W1B6bQg11n-26">
          <mxGeometry width="280" height="33" as="geometry" />
        </mxCell>
        <mxCell id="99pTlGcqJ_W1B6bQg11n-28" value="EventTyoe" style="connectable=0;recursiveResize=0;strokeColor=inherit;fillColor=#A7C942;align=center;fontStyle=1;fontColor=#FFFFFF;html=1;" vertex="1" parent="99pTlGcqJ_W1B6bQg11n-27">
          <mxGeometry width="93" height="33" as="geometry">
            <mxRectangle width="93" height="33" as="alternateBounds" />
          </mxGeometry>
        </mxCell>
        <mxCell id="99pTlGcqJ_W1B6bQg11n-29" value="key" style="connectable=0;recursiveResize=0;strokeColor=inherit;fillColor=#A7C942;align=center;fontStyle=1;fontColor=#FFFFFF;html=1;" vertex="1" parent="99pTlGcqJ_W1B6bQg11n-27">
          <mxGeometry x="93" width="94" height="33" as="geometry">
            <mxRectangle width="94" height="33" as="alternateBounds" />
          </mxGeometry>
        </mxCell>
        <mxCell id="99pTlGcqJ_W1B6bQg11n-30" value="value" style="connectable=0;recursiveResize=0;strokeColor=inherit;fillColor=#A7C942;align=center;fontStyle=1;fontColor=#FFFFFF;html=1;" vertex="1" parent="99pTlGcqJ_W1B6bQg11n-27">
          <mxGeometry x="187" width="93" height="33" as="geometry">
            <mxRectangle width="93" height="33" as="alternateBounds" />
          </mxGeometry>
        </mxCell>
        <mxCell id="99pTlGcqJ_W1B6bQg11n-31" value="" style="shape=tableRow;horizontal=0;startSize=0;swimlaneHead=0;swimlaneBody=0;top=0;left=0;bottom=0;right=0;dropTarget=0;collapsible=0;recursiveResize=0;expand=0;fontStyle=0;strokeColor=inherit;fillColor=#ffffff;" vertex="1" parent="99pTlGcqJ_W1B6bQg11n-26">
          <mxGeometry y="33" width="280" height="32" as="geometry" />
        </mxCell>
        <mxCell id="99pTlGcqJ_W1B6bQg11n-32" value="+" style="connectable=0;recursiveResize=0;strokeColor=inherit;fillColor=inherit;align=center;whiteSpace=wrap;html=1;" vertex="1" parent="99pTlGcqJ_W1B6bQg11n-31">
          <mxGeometry width="93" height="32" as="geometry">
            <mxRectangle width="93" height="32" as="alternateBounds" />
          </mxGeometry>
        </mxCell>
        <mxCell id="99pTlGcqJ_W1B6bQg11n-33" value="2" style="connectable=0;recursiveResize=0;strokeColor=inherit;fillColor=inherit;align=center;whiteSpace=wrap;html=1;" vertex="1" parent="99pTlGcqJ_W1B6bQg11n-31">
          <mxGeometry x="93" width="94" height="32" as="geometry">
            <mxRectangle width="94" height="32" as="alternateBounds" />
          </mxGeometry>
        </mxCell>
        <mxCell id="99pTlGcqJ_W1B6bQg11n-34" value="3" style="connectable=0;recursiveResize=0;strokeColor=inherit;fillColor=inherit;align=center;whiteSpace=wrap;html=1;" vertex="1" parent="99pTlGcqJ_W1B6bQg11n-31">
          <mxGeometry x="187" width="93" height="32" as="geometry">
            <mxRectangle width="93" height="32" as="alternateBounds" />
          </mxGeometry>
        </mxCell>
        <mxCell id="99pTlGcqJ_W1B6bQg11n-35" value="" style="shape=tableRow;horizontal=0;startSize=0;swimlaneHead=0;swimlaneBody=0;top=0;left=0;bottom=0;right=0;dropTarget=0;collapsible=0;recursiveResize=0;expand=0;fontStyle=1;strokeColor=inherit;fillColor=#EAF2D3;" vertex="1" parent="99pTlGcqJ_W1B6bQg11n-26">
          <mxGeometry y="65" width="280" height="35" as="geometry" />
        </mxCell>
        <mxCell id="99pTlGcqJ_W1B6bQg11n-36" value="+" style="connectable=0;recursiveResize=0;strokeColor=inherit;fillColor=inherit;whiteSpace=wrap;html=1;" vertex="1" parent="99pTlGcqJ_W1B6bQg11n-35">
          <mxGeometry width="93" height="35" as="geometry">
            <mxRectangle width="93" height="35" as="alternateBounds" />
          </mxGeometry>
        </mxCell>
        <mxCell id="99pTlGcqJ_W1B6bQg11n-37" value="1" style="connectable=0;recursiveResize=0;strokeColor=inherit;fillColor=inherit;whiteSpace=wrap;html=1;" vertex="1" parent="99pTlGcqJ_W1B6bQg11n-35">
          <mxGeometry x="93" width="94" height="35" as="geometry">
            <mxRectangle width="94" height="35" as="alternateBounds" />
          </mxGeometry>
        </mxCell>
        <mxCell id="99pTlGcqJ_W1B6bQg11n-38" value="4" style="connectable=0;recursiveResize=0;strokeColor=inherit;fillColor=inherit;whiteSpace=wrap;html=1;" vertex="1" parent="99pTlGcqJ_W1B6bQg11n-35">
          <mxGeometry x="187" width="93" height="35" as="geometry">
            <mxRectangle width="93" height="35" as="alternateBounds" />
          </mxGeometry>
        </mxCell>
        <mxCell id="99pTlGcqJ_W1B6bQg11n-39" value="" style="shape=tableRow;horizontal=0;startSize=0;swimlaneHead=0;swimlaneBody=0;top=0;left=0;bottom=0;right=0;dropTarget=0;collapsible=0;recursiveResize=0;expand=0;fontStyle=0;strokeColor=inherit;fillColor=#ffffff;" vertex="1" parent="99pTlGcqJ_W1B6bQg11n-26">
          <mxGeometry y="100" width="280" height="33" as="geometry" />
        </mxCell>
        <mxCell id="99pTlGcqJ_W1B6bQg11n-40" value="-" style="connectable=0;recursiveResize=0;strokeColor=inherit;fillColor=inherit;fontStyle=0;align=center;whiteSpace=wrap;html=1;" vertex="1" parent="99pTlGcqJ_W1B6bQg11n-39">
          <mxGeometry width="93" height="33" as="geometry">
            <mxRectangle width="93" height="33" as="alternateBounds" />
          </mxGeometry>
        </mxCell>
        <mxCell id="99pTlGcqJ_W1B6bQg11n-41" value="2" style="connectable=0;recursiveResize=0;strokeColor=inherit;fillColor=inherit;fontStyle=0;align=center;whiteSpace=wrap;html=1;" vertex="1" parent="99pTlGcqJ_W1B6bQg11n-39">
          <mxGeometry x="93" width="94" height="33" as="geometry">
            <mxRectangle width="94" height="33" as="alternateBounds" />
          </mxGeometry>
        </mxCell>
        <mxCell id="99pTlGcqJ_W1B6bQg11n-42" value="3" style="connectable=0;recursiveResize=0;strokeColor=inherit;fillColor=inherit;fontStyle=0;align=center;whiteSpace=wrap;html=1;" vertex="1" parent="99pTlGcqJ_W1B6bQg11n-39">
          <mxGeometry x="187" width="93" height="33" as="geometry">
            <mxRectangle width="93" height="33" as="alternateBounds" />
          </mxGeometry>
        </mxCell>
        <mxCell id="99pTlGcqJ_W1B6bQg11n-43" value="" style="shape=tableRow;horizontal=0;startSize=0;swimlaneHead=0;swimlaneBody=0;top=0;left=0;bottom=0;right=0;dropTarget=0;collapsible=0;recursiveResize=0;expand=0;fontStyle=1;strokeColor=inherit;fillColor=#EAF2D3;" vertex="1" parent="99pTlGcqJ_W1B6bQg11n-26">
          <mxGeometry y="133" width="280" height="31" as="geometry" />
        </mxCell>
        <mxCell id="99pTlGcqJ_W1B6bQg11n-44" value="-" style="connectable=0;recursiveResize=0;strokeColor=inherit;fillColor=inherit;whiteSpace=wrap;html=1;" vertex="1" parent="99pTlGcqJ_W1B6bQg11n-43">
          <mxGeometry width="93" height="31" as="geometry">
            <mxRectangle width="93" height="31" as="alternateBounds" />
          </mxGeometry>
        </mxCell>
        <mxCell id="99pTlGcqJ_W1B6bQg11n-45" value="1" style="connectable=0;recursiveResize=0;strokeColor=inherit;fillColor=inherit;whiteSpace=wrap;html=1;" vertex="1" parent="99pTlGcqJ_W1B6bQg11n-43">
          <mxGeometry x="93" width="94" height="31" as="geometry">
            <mxRectangle width="94" height="31" as="alternateBounds" />
          </mxGeometry>
        </mxCell>
        <mxCell id="99pTlGcqJ_W1B6bQg11n-46" value="9" style="connectable=0;recursiveResize=0;strokeColor=inherit;fillColor=inherit;whiteSpace=wrap;html=1;" vertex="1" parent="99pTlGcqJ_W1B6bQg11n-43">
          <mxGeometry x="187" width="93" height="31" as="geometry">
            <mxRectangle width="93" height="31" as="alternateBounds" />
          </mxGeometry>
        </mxCell>
        <mxCell id="99pTlGcqJ_W1B6bQg11n-290" value="Assets" style="childLayout=tableLayout;recursiveResize=0;strokeColor=#98bf21;fillColor=#A7C942;shadow=1;" vertex="1" parent="1">
          <mxGeometry x="710" y="340" width="640" height="106" as="geometry" />
        </mxCell>
        <mxCell id="99pTlGcqJ_W1B6bQg11n-291" style="shape=tableRow;horizontal=0;startSize=0;swimlaneHead=0;swimlaneBody=0;top=0;left=0;bottom=0;right=0;dropTarget=0;collapsible=0;recursiveResize=0;expand=0;fontStyle=0;strokeColor=inherit;fillColor=#ffffff;" vertex="1" parent="99pTlGcqJ_W1B6bQg11n-290">
          <mxGeometry width="640" height="41" as="geometry" />
        </mxCell>
        <mxCell id="99pTlGcqJ_W1B6bQg11n-292" value="EventTyoe" style="connectable=0;recursiveResize=0;strokeColor=inherit;fillColor=#A7C942;align=center;fontStyle=1;fontColor=#FFFFFF;html=1;" vertex="1" parent="99pTlGcqJ_W1B6bQg11n-291">
          <mxGeometry width="93" height="41" as="geometry">
            <mxRectangle width="93" height="41" as="alternateBounds" />
          </mxGeometry>
        </mxCell>
        <mxCell id="99pTlGcqJ_W1B6bQg11n-293" value="key" style="connectable=0;recursiveResize=0;strokeColor=inherit;fillColor=#A7C942;align=center;fontStyle=1;fontColor=#FFFFFF;html=1;" vertex="1" parent="99pTlGcqJ_W1B6bQg11n-291">
          <mxGeometry x="93" width="97" height="41" as="geometry">
            <mxRectangle width="97" height="41" as="alternateBounds" />
          </mxGeometry>
        </mxCell>
        <mxCell id="99pTlGcqJ_W1B6bQg11n-294" value="group_key_count" style="connectable=0;recursiveResize=0;strokeColor=inherit;fillColor=#A7C942;align=center;fontStyle=1;fontColor=#FFFFFF;html=1;" vertex="1" parent="99pTlGcqJ_W1B6bQg11n-291">
          <mxGeometry x="190" width="89" height="41" as="geometry">
            <mxRectangle width="89" height="41" as="alternateBounds" />
          </mxGeometry>
        </mxCell>
        <mxCell id="99pTlGcqJ_W1B6bQg11n-295" value="sum" style="connectable=0;recursiveResize=0;strokeColor=inherit;fillColor=#A7C942;align=center;fontStyle=1;fontColor=#FFFFFF;html=1;" vertex="1" parent="99pTlGcqJ_W1B6bQg11n-291">
          <mxGeometry x="279" width="91" height="41" as="geometry">
            <mxRectangle width="91" height="41" as="alternateBounds" />
          </mxGeometry>
        </mxCell>
        <mxCell id="99pTlGcqJ_W1B6bQg11n-296" value="valid_count" style="connectable=0;recursiveResize=0;strokeColor=inherit;fillColor=#A7C942;align=center;fontStyle=1;fontColor=#FFFFFF;html=1;" vertex="1" parent="99pTlGcqJ_W1B6bQg11n-291">
          <mxGeometry x="370" width="90" height="41" as="geometry">
            <mxRectangle width="90" height="41" as="alternateBounds" />
          </mxGeometry>
        </mxCell>
        <mxCell id="99pTlGcqJ_W1B6bQg11n-297" value="map_key" style="connectable=0;recursiveResize=0;strokeColor=inherit;fillColor=#A7C942;align=center;fontStyle=1;fontColor=#FFFFFF;html=1;" vertex="1" parent="99pTlGcqJ_W1B6bQg11n-291">
          <mxGeometry x="460" width="90" height="41" as="geometry">
            <mxRectangle width="90" height="41" as="alternateBounds" />
          </mxGeometry>
        </mxCell>
        <mxCell id="99pTlGcqJ_W1B6bQg11n-298" value="map_key_count" style="connectable=0;recursiveResize=0;strokeColor=inherit;fillColor=#A7C942;align=center;fontStyle=1;fontColor=#FFFFFF;html=1;" vertex="1" parent="99pTlGcqJ_W1B6bQg11n-291">
          <mxGeometry x="550" width="90" height="41" as="geometry">
            <mxRectangle width="90" height="41" as="alternateBounds" />
          </mxGeometry>
        </mxCell>
        <mxCell id="99pTlGcqJ_W1B6bQg11n-299" value="" style="shape=tableRow;horizontal=0;startSize=0;swimlaneHead=0;swimlaneBody=0;top=0;left=0;bottom=0;right=0;dropTarget=0;collapsible=0;recursiveResize=0;expand=0;fontStyle=0;strokeColor=inherit;fillColor=#ffffff;" vertex="1" parent="99pTlGcqJ_W1B6bQg11n-290">
          <mxGeometry y="41" width="640" height="29" as="geometry" />
        </mxCell>
        <mxCell id="99pTlGcqJ_W1B6bQg11n-300" value="+" style="connectable=0;recursiveResize=0;strokeColor=inherit;fillColor=inherit;align=center;whiteSpace=wrap;html=1;" vertex="1" parent="99pTlGcqJ_W1B6bQg11n-299">
          <mxGeometry width="93" height="29" as="geometry">
            <mxRectangle width="93" height="29" as="alternateBounds" />
          </mxGeometry>
        </mxCell>
        <mxCell id="99pTlGcqJ_W1B6bQg11n-301" value="1" style="connectable=0;recursiveResize=0;strokeColor=inherit;fillColor=inherit;align=center;whiteSpace=wrap;html=1;" vertex="1" parent="99pTlGcqJ_W1B6bQg11n-299">
          <mxGeometry x="93" width="97" height="29" as="geometry">
            <mxRectangle width="97" height="29" as="alternateBounds" />
          </mxGeometry>
        </mxCell>
        <mxCell id="99pTlGcqJ_W1B6bQg11n-302" value="0" style="connectable=0;recursiveResize=0;strokeColor=inherit;fillColor=inherit;align=center;whiteSpace=wrap;html=1;" vertex="1" parent="99pTlGcqJ_W1B6bQg11n-299">
          <mxGeometry x="190" width="89" height="29" as="geometry">
            <mxRectangle width="89" height="29" as="alternateBounds" />
          </mxGeometry>
        </mxCell>
        <mxCell id="99pTlGcqJ_W1B6bQg11n-303" value="-5" style="connectable=0;recursiveResize=0;strokeColor=inherit;fillColor=inherit;align=center;whiteSpace=wrap;html=1;" vertex="1" parent="99pTlGcqJ_W1B6bQg11n-299">
          <mxGeometry x="279" width="91" height="29" as="geometry">
            <mxRectangle width="91" height="29" as="alternateBounds" />
          </mxGeometry>
        </mxCell>
        <mxCell id="99pTlGcqJ_W1B6bQg11n-304" value="0" style="connectable=0;recursiveResize=0;strokeColor=inherit;fillColor=inherit;align=center;whiteSpace=wrap;html=1;" vertex="1" parent="99pTlGcqJ_W1B6bQg11n-299">
          <mxGeometry x="370" width="90" height="29" as="geometry">
            <mxRectangle width="90" height="29" as="alternateBounds" />
          </mxGeometry>
        </mxCell>
        <mxCell id="99pTlGcqJ_W1B6bQg11n-305" value="【4，9】" style="connectable=0;recursiveResize=0;strokeColor=inherit;fillColor=inherit;align=center;whiteSpace=wrap;html=1;" vertex="1" parent="99pTlGcqJ_W1B6bQg11n-299">
          <mxGeometry x="460" width="90" height="29" as="geometry">
            <mxRectangle width="90" height="29" as="alternateBounds" />
          </mxGeometry>
        </mxCell>
        <mxCell id="99pTlGcqJ_W1B6bQg11n-306" value="【1，-1】" style="connectable=0;recursiveResize=0;strokeColor=inherit;fillColor=inherit;align=center;whiteSpace=wrap;html=1;" vertex="1" parent="99pTlGcqJ_W1B6bQg11n-299">
          <mxGeometry x="550" width="90" height="29" as="geometry">
            <mxRectangle width="90" height="29" as="alternateBounds" />
          </mxGeometry>
        </mxCell>
        <mxCell id="99pTlGcqJ_W1B6bQg11n-307" value="" style="shape=tableRow;horizontal=0;startSize=0;swimlaneHead=0;swimlaneBody=0;top=0;left=0;bottom=0;right=0;dropTarget=0;collapsible=0;recursiveResize=0;expand=0;fontStyle=1;strokeColor=inherit;fillColor=#EAF2D3;" vertex="1" parent="99pTlGcqJ_W1B6bQg11n-290">
          <mxGeometry y="70" width="640" height="36" as="geometry" />
        </mxCell>
        <mxCell id="99pTlGcqJ_W1B6bQg11n-308" value="" style="connectable=0;recursiveResize=0;strokeColor=inherit;fillColor=inherit;whiteSpace=wrap;html=1;" vertex="1" parent="99pTlGcqJ_W1B6bQg11n-307">
          <mxGeometry width="93" height="36" as="geometry">
            <mxRectangle width="93" height="36" as="alternateBounds" />
          </mxGeometry>
        </mxCell>
        <mxCell id="99pTlGcqJ_W1B6bQg11n-309" value="" style="connectable=0;recursiveResize=0;strokeColor=inherit;fillColor=inherit;whiteSpace=wrap;html=1;" vertex="1" parent="99pTlGcqJ_W1B6bQg11n-307">
          <mxGeometry x="93" width="97" height="36" as="geometry">
            <mxRectangle width="97" height="36" as="alternateBounds" />
          </mxGeometry>
        </mxCell>
        <mxCell id="99pTlGcqJ_W1B6bQg11n-310" value="" style="connectable=0;recursiveResize=0;strokeColor=inherit;fillColor=inherit;whiteSpace=wrap;html=1;" vertex="1" parent="99pTlGcqJ_W1B6bQg11n-307">
          <mxGeometry x="190" width="89" height="36" as="geometry">
            <mxRectangle width="89" height="36" as="alternateBounds" />
          </mxGeometry>
        </mxCell>
        <mxCell id="99pTlGcqJ_W1B6bQg11n-311" value="" style="connectable=0;recursiveResize=0;strokeColor=inherit;fillColor=inherit;whiteSpace=wrap;html=1;" vertex="1" parent="99pTlGcqJ_W1B6bQg11n-307">
          <mxGeometry x="279" width="91" height="36" as="geometry">
            <mxRectangle width="91" height="36" as="alternateBounds" />
          </mxGeometry>
        </mxCell>
        <mxCell id="99pTlGcqJ_W1B6bQg11n-312" value="" style="connectable=0;recursiveResize=0;strokeColor=inherit;fillColor=inherit;whiteSpace=wrap;html=1;" vertex="1" parent="99pTlGcqJ_W1B6bQg11n-307">
          <mxGeometry x="370" width="90" height="36" as="geometry">
            <mxRectangle width="90" height="36" as="alternateBounds" />
          </mxGeometry>
        </mxCell>
        <mxCell id="99pTlGcqJ_W1B6bQg11n-313" value="" style="connectable=0;recursiveResize=0;strokeColor=inherit;fillColor=inherit;whiteSpace=wrap;html=1;" vertex="1" parent="99pTlGcqJ_W1B6bQg11n-307">
          <mxGeometry x="460" width="90" height="36" as="geometry">
            <mxRectangle width="90" height="36" as="alternateBounds" />
          </mxGeometry>
        </mxCell>
        <mxCell id="99pTlGcqJ_W1B6bQg11n-314" value="" style="connectable=0;recursiveResize=0;strokeColor=inherit;fillColor=inherit;whiteSpace=wrap;html=1;" vertex="1" parent="99pTlGcqJ_W1B6bQg11n-307">
          <mxGeometry x="550" width="90" height="36" as="geometry">
            <mxRectangle width="90" height="36" as="alternateBounds" />
          </mxGeometry>
        </mxCell>
        <mxCell id="99pTlGcqJ_W1B6bQg11n-315" value="Assets" style="childLayout=tableLayout;recursiveResize=0;strokeColor=#98bf21;fillColor=#A7C942;shadow=1;" vertex="1" parent="1">
          <mxGeometry x="20" y="550" width="910" height="110" as="geometry" />
        </mxCell>
        <mxCell id="99pTlGcqJ_W1B6bQg11n-316" style="shape=tableRow;horizontal=0;startSize=0;swimlaneHead=0;swimlaneBody=0;top=0;left=0;bottom=0;right=0;dropTarget=0;collapsible=0;recursiveResize=0;expand=0;fontStyle=0;strokeColor=inherit;fillColor=#ffffff;" vertex="1" parent="99pTlGcqJ_W1B6bQg11n-315">
          <mxGeometry width="910" height="41" as="geometry" />
        </mxCell>
        <mxCell id="99pTlGcqJ_W1B6bQg11n-317" value="EventTyoe" style="connectable=0;recursiveResize=0;strokeColor=inherit;fillColor=#A7C942;align=center;fontStyle=1;fontColor=#FFFFFF;html=1;" vertex="1" parent="99pTlGcqJ_W1B6bQg11n-316">
          <mxGeometry width="93" height="41" as="geometry">
            <mxRectangle width="93" height="41" as="alternateBounds" />
          </mxGeometry>
        </mxCell>
        <mxCell id="99pTlGcqJ_W1B6bQg11n-318" value="key" style="connectable=0;recursiveResize=0;strokeColor=inherit;fillColor=#A7C942;align=center;fontStyle=1;fontColor=#FFFFFF;html=1;" vertex="1" parent="99pTlGcqJ_W1B6bQg11n-316">
          <mxGeometry x="93" width="97" height="41" as="geometry">
            <mxRectangle width="97" height="41" as="alternateBounds" />
          </mxGeometry>
        </mxCell>
        <mxCell id="99pTlGcqJ_W1B6bQg11n-319" value="group_key_count" style="connectable=0;recursiveResize=0;strokeColor=inherit;fillColor=#A7C942;align=center;fontStyle=1;fontColor=#FFFFFF;html=1;" vertex="1" parent="99pTlGcqJ_W1B6bQg11n-316">
          <mxGeometry x="190" width="90" height="41" as="geometry">
            <mxRectangle width="90" height="41" as="alternateBounds" />
          </mxGeometry>
        </mxCell>
        <mxCell id="99pTlGcqJ_W1B6bQg11n-320" value="sum" style="connectable=0;recursiveResize=0;strokeColor=inherit;fillColor=#A7C942;align=center;fontStyle=1;fontColor=#FFFFFF;html=1;" vertex="1" parent="99pTlGcqJ_W1B6bQg11n-316">
          <mxGeometry x="280" width="90" height="41" as="geometry">
            <mxRectangle width="90" height="41" as="alternateBounds" />
          </mxGeometry>
        </mxCell>
        <mxCell id="99pTlGcqJ_W1B6bQg11n-321" value="valid_count" style="connectable=0;recursiveResize=0;strokeColor=inherit;fillColor=#A7C942;align=center;fontStyle=1;fontColor=#FFFFFF;html=1;" vertex="1" parent="99pTlGcqJ_W1B6bQg11n-316">
          <mxGeometry x="370" width="90" height="41" as="geometry">
            <mxRectangle width="90" height="41" as="alternateBounds" />
          </mxGeometry>
        </mxCell>
        <mxCell id="99pTlGcqJ_W1B6bQg11n-322" value="max_key" style="connectable=0;recursiveResize=0;strokeColor=inherit;fillColor=#A7C942;align=center;fontStyle=1;fontColor=#FFFFFF;html=1;" vertex="1" parent="99pTlGcqJ_W1B6bQg11n-316">
          <mxGeometry x="460" width="110" height="41" as="geometry">
            <mxRectangle width="110" height="41" as="alternateBounds" />
          </mxGeometry>
        </mxCell>
        <mxCell id="99pTlGcqJ_W1B6bQg11n-323" value="max_key_count" style="connectable=0;recursiveResize=0;strokeColor=inherit;fillColor=#A7C942;align=center;fontStyle=1;fontColor=#FFFFFF;html=1;" vertex="1" parent="99pTlGcqJ_W1B6bQg11n-316">
          <mxGeometry x="570" width="100" height="41" as="geometry">
            <mxRectangle width="100" height="41" as="alternateBounds" />
          </mxGeometry>
        </mxCell>
        <mxCell id="99pTlGcqJ_W1B6bQg11n-358" value="sum2" style="connectable=0;recursiveResize=0;strokeColor=inherit;fillColor=#A7C942;align=center;fontStyle=1;fontColor=#FFFFFF;html=1;" vertex="1" parent="99pTlGcqJ_W1B6bQg11n-316">
          <mxGeometry x="670" width="240" height="41" as="geometry">
            <mxRectangle width="240" height="41" as="alternateBounds" />
          </mxGeometry>
        </mxCell>
        <mxCell id="99pTlGcqJ_W1B6bQg11n-324" value="" style="shape=tableRow;horizontal=0;startSize=0;swimlaneHead=0;swimlaneBody=0;top=0;left=0;bottom=0;right=0;dropTarget=0;collapsible=0;recursiveResize=0;expand=0;fontStyle=0;strokeColor=inherit;fillColor=#ffffff;" vertex="1" parent="99pTlGcqJ_W1B6bQg11n-315">
          <mxGeometry y="41" width="910" height="33" as="geometry" />
        </mxCell>
        <mxCell id="99pTlGcqJ_W1B6bQg11n-325" value="+" style="connectable=0;recursiveResize=0;strokeColor=inherit;fillColor=inherit;align=center;whiteSpace=wrap;html=1;" vertex="1" parent="99pTlGcqJ_W1B6bQg11n-324">
          <mxGeometry width="93" height="33" as="geometry">
            <mxRectangle width="93" height="33" as="alternateBounds" />
          </mxGeometry>
        </mxCell>
        <mxCell id="99pTlGcqJ_W1B6bQg11n-326" value="1" style="connectable=0;recursiveResize=0;strokeColor=inherit;fillColor=inherit;align=center;whiteSpace=wrap;html=1;" vertex="1" parent="99pTlGcqJ_W1B6bQg11n-324">
          <mxGeometry x="93" width="97" height="33" as="geometry">
            <mxRectangle width="97" height="33" as="alternateBounds" />
          </mxGeometry>
        </mxCell>
        <mxCell id="99pTlGcqJ_W1B6bQg11n-327" value="1" style="connectable=0;recursiveResize=0;strokeColor=inherit;fillColor=inherit;align=center;whiteSpace=wrap;html=1;" vertex="1" parent="99pTlGcqJ_W1B6bQg11n-324">
          <mxGeometry x="190" width="90" height="33" as="geometry">
            <mxRectangle width="90" height="33" as="alternateBounds" />
          </mxGeometry>
        </mxCell>
        <mxCell id="99pTlGcqJ_W1B6bQg11n-328" value="-8" style="connectable=0;recursiveResize=0;strokeColor=inherit;fillColor=inherit;align=center;whiteSpace=wrap;html=1;" vertex="1" parent="99pTlGcqJ_W1B6bQg11n-324">
          <mxGeometry x="280" width="90" height="33" as="geometry">
            <mxRectangle width="90" height="33" as="alternateBounds" />
          </mxGeometry>
        </mxCell>
        <mxCell id="99pTlGcqJ_W1B6bQg11n-329" value="1" style="connectable=0;recursiveResize=0;strokeColor=inherit;fillColor=inherit;align=center;whiteSpace=wrap;html=1;" vertex="1" parent="99pTlGcqJ_W1B6bQg11n-324">
          <mxGeometry x="370" width="90" height="33" as="geometry">
            <mxRectangle width="90" height="33" as="alternateBounds" />
          </mxGeometry>
        </mxCell>
        <mxCell id="99pTlGcqJ_W1B6bQg11n-330" value="【3，4，10，9】" style="connectable=0;recursiveResize=0;strokeColor=inherit;fillColor=inherit;align=center;whiteSpace=wrap;html=1;" vertex="1" parent="99pTlGcqJ_W1B6bQg11n-324">
          <mxGeometry x="460" width="110" height="33" as="geometry">
            <mxRectangle width="110" height="33" as="alternateBounds" />
          </mxGeometry>
        </mxCell>
        <mxCell id="99pTlGcqJ_W1B6bQg11n-331" value="【1，2，-1，-1】" style="connectable=0;recursiveResize=0;strokeColor=inherit;fillColor=inherit;align=center;whiteSpace=wrap;html=1;" vertex="1" parent="99pTlGcqJ_W1B6bQg11n-324">
          <mxGeometry x="570" width="100" height="33" as="geometry">
            <mxRectangle width="100" height="33" as="alternateBounds" />
          </mxGeometry>
        </mxCell>
        <mxCell id="99pTlGcqJ_W1B6bQg11n-359" value="value after processed with state" style="connectable=0;recursiveResize=0;strokeColor=inherit;fillColor=inherit;align=center;whiteSpace=wrap;html=1;" vertex="1" parent="99pTlGcqJ_W1B6bQg11n-324">
          <mxGeometry x="670" width="240" height="33" as="geometry">
            <mxRectangle width="240" height="33" as="alternateBounds" />
          </mxGeometry>
        </mxCell>
        <mxCell id="99pTlGcqJ_W1B6bQg11n-332" value="" style="shape=tableRow;horizontal=0;startSize=0;swimlaneHead=0;swimlaneBody=0;top=0;left=0;bottom=0;right=0;dropTarget=0;collapsible=0;recursiveResize=0;expand=0;fontStyle=1;strokeColor=inherit;fillColor=#EAF2D3;" vertex="1" parent="99pTlGcqJ_W1B6bQg11n-315">
          <mxGeometry y="74" width="910" height="36" as="geometry" />
        </mxCell>
        <mxCell id="99pTlGcqJ_W1B6bQg11n-333" value="+" style="connectable=0;recursiveResize=0;strokeColor=inherit;fillColor=inherit;whiteSpace=wrap;html=1;" vertex="1" parent="99pTlGcqJ_W1B6bQg11n-332">
          <mxGeometry width="93" height="36" as="geometry">
            <mxRectangle width="93" height="36" as="alternateBounds" />
          </mxGeometry>
        </mxCell>
        <mxCell id="99pTlGcqJ_W1B6bQg11n-334" value="2" style="connectable=0;recursiveResize=0;strokeColor=inherit;fillColor=inherit;whiteSpace=wrap;html=1;" vertex="1" parent="99pTlGcqJ_W1B6bQg11n-332">
          <mxGeometry x="93" width="97" height="36" as="geometry">
            <mxRectangle width="97" height="36" as="alternateBounds" />
          </mxGeometry>
        </mxCell>
        <mxCell id="99pTlGcqJ_W1B6bQg11n-335" value="-1" style="connectable=0;recursiveResize=0;strokeColor=inherit;fillColor=inherit;whiteSpace=wrap;html=1;" vertex="1" parent="99pTlGcqJ_W1B6bQg11n-332">
          <mxGeometry x="190" width="90" height="36" as="geometry">
            <mxRectangle width="90" height="36" as="alternateBounds" />
          </mxGeometry>
        </mxCell>
        <mxCell id="99pTlGcqJ_W1B6bQg11n-336" value="-5" style="connectable=0;recursiveResize=0;strokeColor=inherit;fillColor=inherit;whiteSpace=wrap;html=1;" vertex="1" parent="99pTlGcqJ_W1B6bQg11n-332">
          <mxGeometry x="280" width="90" height="36" as="geometry">
            <mxRectangle width="90" height="36" as="alternateBounds" />
          </mxGeometry>
        </mxCell>
        <mxCell id="99pTlGcqJ_W1B6bQg11n-337" value="-1" style="connectable=0;recursiveResize=0;strokeColor=inherit;fillColor=inherit;whiteSpace=wrap;html=1;" vertex="1" parent="99pTlGcqJ_W1B6bQg11n-332">
          <mxGeometry x="370" width="90" height="36" as="geometry">
            <mxRectangle width="90" height="36" as="alternateBounds" />
          </mxGeometry>
        </mxCell>
        <mxCell id="99pTlGcqJ_W1B6bQg11n-338" value="【5】" style="connectable=0;recursiveResize=0;strokeColor=inherit;fillColor=inherit;whiteSpace=wrap;html=1;" vertex="1" parent="99pTlGcqJ_W1B6bQg11n-332">
          <mxGeometry x="460" width="110" height="36" as="geometry">
            <mxRectangle width="110" height="36" as="alternateBounds" />
          </mxGeometry>
        </mxCell>
        <mxCell id="99pTlGcqJ_W1B6bQg11n-339" value="【-1】" style="connectable=0;recursiveResize=0;strokeColor=inherit;fillColor=inherit;whiteSpace=wrap;html=1;" vertex="1" parent="99pTlGcqJ_W1B6bQg11n-332">
          <mxGeometry x="570" width="100" height="36" as="geometry">
            <mxRectangle width="100" height="36" as="alternateBounds" />
          </mxGeometry>
        </mxCell>
        <mxCell id="99pTlGcqJ_W1B6bQg11n-360" value="value after processed with state" style="connectable=0;recursiveResize=0;strokeColor=inherit;fillColor=inherit;whiteSpace=wrap;html=1;" vertex="1" parent="99pTlGcqJ_W1B6bQg11n-332">
          <mxGeometry x="670" width="240" height="36" as="geometry">
            <mxRectangle width="240" height="36" as="alternateBounds" />
          </mxGeometry>
        </mxCell>
        <mxCell id="99pTlGcqJ_W1B6bQg11n-355" value="&lt;div style=&quot;text-align: left;&quot;&gt;&lt;/div&gt;&lt;div style=&quot;text-align: left;&quot;&gt;&lt;span style=&quot;background-color: initial;&quot;&gt;select sum(value), count(value), max(value), count(distinct value)&lt;/span&gt;&lt;/div&gt;&lt;div style=&quot;text-align: left;&quot;&gt;&lt;span style=&quot;background-color: initial;&quot;&gt;from T&lt;/span&gt;&lt;/div&gt;&lt;div style=&quot;text-align: left;&quot;&gt;&lt;span style=&quot;background-color: initial;&quot;&gt;group by key&lt;/span&gt;&lt;/div&gt;&lt;div style=&quot;text-align: left;&quot;&gt;&lt;br&gt;&lt;/div&gt;&lt;div style=&quot;text-align: left;&quot;&gt;select sum(sum), count(count1), max(max), sum(count 2)&lt;br style=&quot;border-color: var(--border-color); text-align: center;&quot;&gt;&lt;div style=&quot;border-color: var(--border-color);&quot;&gt;&lt;span style=&quot;border-color: var(--border-color); background-color: initial;&quot;&gt;from (&lt;/span&gt;&lt;/div&gt;&lt;div style=&quot;border-color: var(--border-color);&quot;&gt;&lt;span style=&quot;border-color: var(--border-color); background-color: initial;&quot;&gt;&lt;span style=&quot;&quot;&gt;&lt;span style=&quot;white-space: pre;&quot;&gt;&amp;nbsp;&amp;nbsp;&amp;nbsp;&amp;nbsp;&lt;span style=&quot;white-space: pre;&quot;&gt;&#x9;&lt;/span&gt;&lt;/span&gt;&lt;/span&gt;select sum(value), count(value),&amp;nbsp;&lt;/span&gt;max(value), count(distinct value)&lt;/div&gt;&lt;div style=&quot;border-color: var(--border-color);&quot;&gt;&lt;span style=&quot;white-space: pre;&quot;&gt;&#x9;&lt;/span&gt;from T&lt;br&gt;&lt;/div&gt;&lt;div style=&quot;border-color: var(--border-color);&quot;&gt;&lt;span style=&quot;white-space: pre;&quot;&gt;&#x9;&lt;/span&gt;group by key, MOD(hash(value))&lt;br&gt;&lt;/div&gt;&lt;div style=&quot;border-color: var(--border-color);&quot;&gt;&lt;span style=&quot;border-color: var(--border-color); background-color: initial;&quot;&gt;)&lt;/span&gt;&lt;/div&gt;&lt;div style=&quot;border-color: var(--border-color);&quot;&gt;&lt;span style=&quot;border-color: var(--border-color); background-color: initial;&quot;&gt;group by key&lt;/span&gt;&lt;/div&gt;&lt;/div&gt;&lt;div style=&quot;text-align: left;&quot;&gt;&lt;br&gt;&lt;/div&gt;" style="text;strokeColor=none;fillColor=none;html=1;fontSize=24;fontStyle=1;verticalAlign=middle;align=center;" vertex="1" parent="1">
          <mxGeometry x="130" y="-370" width="780" height="300" as="geometry" />
        </mxCell>
        <mxCell id="99pTlGcqJ_W1B6bQg11n-361" value="Assets" style="childLayout=tableLayout;recursiveResize=0;strokeColor=#98bf21;fillColor=#A7C942;shadow=1;" vertex="1" parent="1">
          <mxGeometry x="20" y="710" width="830" height="110" as="geometry" />
        </mxCell>
        <mxCell id="99pTlGcqJ_W1B6bQg11n-362" style="shape=tableRow;horizontal=0;startSize=0;swimlaneHead=0;swimlaneBody=0;top=0;left=0;bottom=0;right=0;dropTarget=0;collapsible=0;recursiveResize=0;expand=0;fontStyle=0;strokeColor=inherit;fillColor=#ffffff;" vertex="1" parent="99pTlGcqJ_W1B6bQg11n-361">
          <mxGeometry width="830" height="41" as="geometry" />
        </mxCell>
        <mxCell id="99pTlGcqJ_W1B6bQg11n-363" value="EventTyoe" style="connectable=0;recursiveResize=0;strokeColor=inherit;fillColor=#A7C942;align=center;fontStyle=1;fontColor=#FFFFFF;html=1;" vertex="1" parent="99pTlGcqJ_W1B6bQg11n-362">
          <mxGeometry width="93" height="41" as="geometry">
            <mxRectangle width="93" height="41" as="alternateBounds" />
          </mxGeometry>
        </mxCell>
        <mxCell id="99pTlGcqJ_W1B6bQg11n-364" value="key" style="connectable=0;recursiveResize=0;strokeColor=inherit;fillColor=#A7C942;align=center;fontStyle=1;fontColor=#FFFFFF;html=1;" vertex="1" parent="99pTlGcqJ_W1B6bQg11n-362">
          <mxGeometry x="93" width="97" height="41" as="geometry">
            <mxRectangle width="97" height="41" as="alternateBounds" />
          </mxGeometry>
        </mxCell>
        <mxCell id="99pTlGcqJ_W1B6bQg11n-365" value="group_key_count" style="connectable=0;recursiveResize=0;strokeColor=inherit;fillColor=#A7C942;align=center;fontStyle=1;fontColor=#FFFFFF;html=1;" vertex="1" parent="99pTlGcqJ_W1B6bQg11n-362">
          <mxGeometry x="190" width="90" height="41" as="geometry">
            <mxRectangle width="90" height="41" as="alternateBounds" />
          </mxGeometry>
        </mxCell>
        <mxCell id="99pTlGcqJ_W1B6bQg11n-366" value="sum" style="connectable=0;recursiveResize=0;strokeColor=inherit;fillColor=#A7C942;align=center;fontStyle=1;fontColor=#FFFFFF;html=1;" vertex="1" parent="99pTlGcqJ_W1B6bQg11n-362">
          <mxGeometry x="280" width="90" height="41" as="geometry">
            <mxRectangle width="90" height="41" as="alternateBounds" />
          </mxGeometry>
        </mxCell>
        <mxCell id="99pTlGcqJ_W1B6bQg11n-367" value="valid_count" style="connectable=0;recursiveResize=0;strokeColor=inherit;fillColor=#A7C942;align=center;fontStyle=1;fontColor=#FFFFFF;html=1;" vertex="1" parent="99pTlGcqJ_W1B6bQg11n-362">
          <mxGeometry x="370" width="90" height="41" as="geometry">
            <mxRectangle width="90" height="41" as="alternateBounds" />
          </mxGeometry>
        </mxCell>
        <mxCell id="99pTlGcqJ_W1B6bQg11n-368" value="max" style="connectable=0;recursiveResize=0;strokeColor=inherit;fillColor=#A7C942;align=center;fontStyle=1;fontColor=#FFFFFF;html=1;" vertex="1" parent="99pTlGcqJ_W1B6bQg11n-362">
          <mxGeometry x="460" width="190" height="41" as="geometry">
            <mxRectangle width="190" height="41" as="alternateBounds" />
          </mxGeometry>
        </mxCell>
        <mxCell id="99pTlGcqJ_W1B6bQg11n-369" value="sum2" style="connectable=0;recursiveResize=0;strokeColor=inherit;fillColor=#A7C942;align=center;fontStyle=1;fontColor=#FFFFFF;html=1;" vertex="1" parent="99pTlGcqJ_W1B6bQg11n-362">
          <mxGeometry x="650" width="180" height="41" as="geometry">
            <mxRectangle width="180" height="41" as="alternateBounds" />
          </mxGeometry>
        </mxCell>
        <mxCell id="99pTlGcqJ_W1B6bQg11n-371" value="" style="shape=tableRow;horizontal=0;startSize=0;swimlaneHead=0;swimlaneBody=0;top=0;left=0;bottom=0;right=0;dropTarget=0;collapsible=0;recursiveResize=0;expand=0;fontStyle=0;strokeColor=inherit;fillColor=#ffffff;" vertex="1" parent="99pTlGcqJ_W1B6bQg11n-361">
          <mxGeometry y="41" width="830" height="33" as="geometry" />
        </mxCell>
        <mxCell id="99pTlGcqJ_W1B6bQg11n-372" value="+" style="connectable=0;recursiveResize=0;strokeColor=inherit;fillColor=inherit;align=center;whiteSpace=wrap;html=1;" vertex="1" parent="99pTlGcqJ_W1B6bQg11n-371">
          <mxGeometry width="93" height="33" as="geometry">
            <mxRectangle width="93" height="33" as="alternateBounds" />
          </mxGeometry>
        </mxCell>
        <mxCell id="99pTlGcqJ_W1B6bQg11n-373" value="1" style="connectable=0;recursiveResize=0;strokeColor=inherit;fillColor=inherit;align=center;whiteSpace=wrap;html=1;" vertex="1" parent="99pTlGcqJ_W1B6bQg11n-371">
          <mxGeometry x="93" width="97" height="33" as="geometry">
            <mxRectangle width="97" height="33" as="alternateBounds" />
          </mxGeometry>
        </mxCell>
        <mxCell id="99pTlGcqJ_W1B6bQg11n-374" value="1" style="connectable=0;recursiveResize=0;strokeColor=inherit;fillColor=inherit;align=center;whiteSpace=wrap;html=1;" vertex="1" parent="99pTlGcqJ_W1B6bQg11n-371">
          <mxGeometry x="190" width="90" height="33" as="geometry">
            <mxRectangle width="90" height="33" as="alternateBounds" />
          </mxGeometry>
        </mxCell>
        <mxCell id="99pTlGcqJ_W1B6bQg11n-375" value="-8" style="connectable=0;recursiveResize=0;strokeColor=inherit;fillColor=inherit;align=center;whiteSpace=wrap;html=1;" vertex="1" parent="99pTlGcqJ_W1B6bQg11n-371">
          <mxGeometry x="280" width="90" height="33" as="geometry">
            <mxRectangle width="90" height="33" as="alternateBounds" />
          </mxGeometry>
        </mxCell>
        <mxCell id="99pTlGcqJ_W1B6bQg11n-376" value="1" style="connectable=0;recursiveResize=0;strokeColor=inherit;fillColor=inherit;align=center;whiteSpace=wrap;html=1;" vertex="1" parent="99pTlGcqJ_W1B6bQg11n-371">
          <mxGeometry x="370" width="90" height="33" as="geometry">
            <mxRectangle width="90" height="33" as="alternateBounds" />
          </mxGeometry>
        </mxCell>
        <mxCell id="99pTlGcqJ_W1B6bQg11n-377" value="value after processed with state" style="connectable=0;recursiveResize=0;strokeColor=inherit;fillColor=inherit;align=center;whiteSpace=wrap;html=1;" vertex="1" parent="99pTlGcqJ_W1B6bQg11n-371">
          <mxGeometry x="460" width="190" height="33" as="geometry">
            <mxRectangle width="190" height="33" as="alternateBounds" />
          </mxGeometry>
        </mxCell>
        <mxCell id="99pTlGcqJ_W1B6bQg11n-378" value="value after processed with state" style="connectable=0;recursiveResize=0;strokeColor=inherit;fillColor=inherit;align=center;whiteSpace=wrap;html=1;" vertex="1" parent="99pTlGcqJ_W1B6bQg11n-371">
          <mxGeometry x="650" width="180" height="33" as="geometry">
            <mxRectangle width="180" height="33" as="alternateBounds" />
          </mxGeometry>
        </mxCell>
        <mxCell id="99pTlGcqJ_W1B6bQg11n-380" value="" style="shape=tableRow;horizontal=0;startSize=0;swimlaneHead=0;swimlaneBody=0;top=0;left=0;bottom=0;right=0;dropTarget=0;collapsible=0;recursiveResize=0;expand=0;fontStyle=1;strokeColor=inherit;fillColor=#EAF2D3;" vertex="1" parent="99pTlGcqJ_W1B6bQg11n-361">
          <mxGeometry y="74" width="830" height="36" as="geometry" />
        </mxCell>
        <mxCell id="99pTlGcqJ_W1B6bQg11n-381" value="+" style="connectable=0;recursiveResize=0;strokeColor=inherit;fillColor=inherit;whiteSpace=wrap;html=1;" vertex="1" parent="99pTlGcqJ_W1B6bQg11n-380">
          <mxGeometry width="93" height="36" as="geometry">
            <mxRectangle width="93" height="36" as="alternateBounds" />
          </mxGeometry>
        </mxCell>
        <mxCell id="99pTlGcqJ_W1B6bQg11n-382" value="2" style="connectable=0;recursiveResize=0;strokeColor=inherit;fillColor=inherit;whiteSpace=wrap;html=1;" vertex="1" parent="99pTlGcqJ_W1B6bQg11n-380">
          <mxGeometry x="93" width="97" height="36" as="geometry">
            <mxRectangle width="97" height="36" as="alternateBounds" />
          </mxGeometry>
        </mxCell>
        <mxCell id="99pTlGcqJ_W1B6bQg11n-383" value="-1" style="connectable=0;recursiveResize=0;strokeColor=inherit;fillColor=inherit;whiteSpace=wrap;html=1;" vertex="1" parent="99pTlGcqJ_W1B6bQg11n-380">
          <mxGeometry x="190" width="90" height="36" as="geometry">
            <mxRectangle width="90" height="36" as="alternateBounds" />
          </mxGeometry>
        </mxCell>
        <mxCell id="99pTlGcqJ_W1B6bQg11n-384" value="-5" style="connectable=0;recursiveResize=0;strokeColor=inherit;fillColor=inherit;whiteSpace=wrap;html=1;" vertex="1" parent="99pTlGcqJ_W1B6bQg11n-380">
          <mxGeometry x="280" width="90" height="36" as="geometry">
            <mxRectangle width="90" height="36" as="alternateBounds" />
          </mxGeometry>
        </mxCell>
        <mxCell id="99pTlGcqJ_W1B6bQg11n-385" value="-1" style="connectable=0;recursiveResize=0;strokeColor=inherit;fillColor=inherit;whiteSpace=wrap;html=1;" vertex="1" parent="99pTlGcqJ_W1B6bQg11n-380">
          <mxGeometry x="370" width="90" height="36" as="geometry">
            <mxRectangle width="90" height="36" as="alternateBounds" />
          </mxGeometry>
        </mxCell>
        <mxCell id="99pTlGcqJ_W1B6bQg11n-386" value="value after processed with state" style="connectable=0;recursiveResize=0;strokeColor=inherit;fillColor=inherit;whiteSpace=wrap;html=1;" vertex="1" parent="99pTlGcqJ_W1B6bQg11n-380">
          <mxGeometry x="460" width="190" height="36" as="geometry">
            <mxRectangle width="190" height="36" as="alternateBounds" />
          </mxGeometry>
        </mxCell>
        <mxCell id="99pTlGcqJ_W1B6bQg11n-387" value="value after processed with state" style="connectable=0;recursiveResize=0;strokeColor=inherit;fillColor=inherit;whiteSpace=wrap;html=1;" vertex="1" parent="99pTlGcqJ_W1B6bQg11n-380">
          <mxGeometry x="650" width="180" height="36" as="geometry">
            <mxRectangle width="180" height="36" as="alternateBounds" />
          </mxGeometry>
        </mxCell>
        <mxCell id="99pTlGcqJ_W1B6bQg11n-389" value="" style="endArrow=classic;html=1;rounded=0;" edge="1" parent="1">
          <mxGeometry width="50" height="50" relative="1" as="geometry">
            <mxPoint x="720" y="530" as="sourcePoint" />
            <mxPoint x="630" y="600" as="targetPoint" />
          </mxGeometry>
        </mxCell>
        <UserObject label="merge ListArray" placeholders="1" name="Variable" id="99pTlGcqJ_W1B6bQg11n-390">
          <mxCell style="text;html=1;strokeColor=none;fillColor=none;align=center;verticalAlign=middle;whiteSpace=wrap;overflow=hidden;" vertex="1" parent="1">
            <mxGeometry x="720" y="510" width="110" height="20" as="geometry" />
          </mxCell>
        </UserObject>
        <mxCell id="99pTlGcqJ_W1B6bQg11n-394" value="max/min&lt;br&gt;&amp;nbsp;不存state" style="text;strokeColor=none;fillColor=none;html=1;fontSize=24;fontStyle=1;verticalAlign=middle;align=center;" vertex="1" parent="1">
          <mxGeometry x="-130" y="585" width="100" height="40" as="geometry" />
        </mxCell>
        <mxCell id="99pTlGcqJ_W1B6bQg11n-395" value="max/min &lt;br&gt;存state" style="text;strokeColor=none;fillColor=none;html=1;fontSize=24;fontStyle=1;verticalAlign=middle;align=center;" vertex="1" parent="1">
          <mxGeometry x="-130" y="745" width="100" height="40" as="geometry" />
        </mxCell>
        <mxCell id="99pTlGcqJ_W1B6bQg11n-398" value="shard 1" style="shape=umlFrame;whiteSpace=wrap;html=1;pointerEvents=0;" vertex="1" parent="1">
          <mxGeometry x="-50" y="59" width="700" height="441" as="geometry" />
        </mxCell>
        <mxCell id="99pTlGcqJ_W1B6bQg11n-399" value="shard 2" style="shape=umlFrame;whiteSpace=wrap;html=1;pointerEvents=0;" vertex="1" parent="1">
          <mxGeometry x="690" y="59" width="700" height="441" as="geometry" />
        </mxCell>
        <mxCell id="99pTlGcqJ_W1B6bQg11n-400" value="" style="shape=flexArrow;endArrow=classic;html=1;rounded=0;" edge="1" parent="1">
          <mxGeometry width="50" height="50" relative="1" as="geometry">
            <mxPoint x="970" y="270" as="sourcePoint" />
            <mxPoint x="970" y="325" as="targetPoint" />
          </mxGeometry>
        </mxCell>
        <mxCell id="99pTlGcqJ_W1B6bQg11n-401" value="" style="shape=flexArrow;endArrow=classic;html=1;rounded=0;" edge="1" parent="1">
          <mxGeometry width="50" height="50" relative="1" as="geometry">
            <mxPoint x="190" y="270" as="sourcePoint" />
            <mxPoint x="190" y="325" as="targetPoint" />
          </mxGeometry>
        </mxCell>
        <mxCell id="99pTlGcqJ_W1B6bQg11n-402" value="Local agg" style="text;strokeColor=none;fillColor=none;html=1;fontSize=24;fontStyle=1;verticalAlign=middle;align=center;" vertex="1" parent="1">
          <mxGeometry x="-330" y="380" width="100" height="40" as="geometry" />
        </mxCell>
        <mxCell id="99pTlGcqJ_W1B6bQg11n-403" value="Increment agg" style="text;strokeColor=none;fillColor=none;html=1;fontSize=24;fontStyle=1;verticalAlign=middle;align=center;" vertex="1" parent="1">
          <mxGeometry x="-300" y="640" width="100" height="40" as="geometry" />
        </mxCell>
      </root>
    </mxGraphModel>
  </diagram>
</mxfile>
